<svg width="364" height="386" viewBox="0 0 364 386" fill="none" xmlns="http://www.w3.org/2000/svg">
<path opacity="0.1" d="M181.838 386C281.908 386 363.032 382.031 363.032 377.135C363.032 372.238 281.908 368.269 181.838 368.269C81.7679 368.269 0.644287 372.238 0.644287 377.135C0.644287 382.031 81.7679 386 181.838 386Z" fill="#FF3427"/>
<path d="M163.379 112.081C163.379 112.081 174.93 135.657 175.826 139.022C176.059 139.956 176.563 140.785 177.263 141.389C177.964 141.993 178.824 142.34 179.72 142.38C179.72 142.38 191.227 145.347 193.977 145.745C196.728 146.142 220.566 148.314 220.566 148.314C220.566 148.314 226.617 148.516 227.348 146.142C228.019 143.971 239.708 132.56 246.473 142.517C247.097 143.438 247.51 144.505 247.681 145.63C247.851 146.756 247.772 147.91 247.452 148.997C246.209 153.269 243.657 160.052 240.918 155.833C237.067 149.899 232.59 151.566 232.59 154.729C232.59 157.892 226.43 156.717 224.416 157.162C223.316 157.405 219.532 158.491 216.259 159.44C212.461 160.548 208.569 161.246 204.643 161.523C198.147 161.98 188.57 162.36 185.177 160.977C181.079 159.298 173.934 158.912 170.876 158.823C169.863 158.797 168.884 158.418 168.087 157.743C163.842 154.159 160.252 149.754 157.499 144.754C152.73 135.853 142.923 117.422 143.583 112.081C144.243 106.741 163.379 112.081 163.379 112.081Z" fill="#EFB7B9"/>
<path opacity="0.05" d="M163.379 112.081C163.379 112.081 174.93 135.657 175.826 139.022C176.059 139.956 176.563 140.785 177.263 141.389C177.964 141.993 178.824 142.34 179.72 142.38C179.72 142.38 191.227 145.347 193.977 145.745C196.728 146.142 220.566 148.314 220.566 148.314C220.566 148.314 226.617 148.516 227.348 146.142C228.019 143.971 239.708 132.56 246.473 142.517C247.097 143.438 247.51 144.505 247.681 145.63C247.851 146.756 247.772 147.91 247.452 148.997C246.209 153.269 243.657 160.052 240.918 155.833C237.067 149.899 232.59 151.566 232.59 154.729C232.59 157.892 226.43 156.717 224.416 157.162C223.316 157.405 219.532 158.491 216.259 159.44C212.461 160.548 208.569 161.246 204.643 161.523C198.147 161.98 188.57 162.36 185.177 160.977C181.079 159.298 173.934 158.912 170.876 158.823C169.863 158.797 168.884 158.418 168.087 157.743C163.842 154.159 160.252 149.754 157.499 144.754C152.73 135.853 142.923 117.422 143.583 112.081C144.243 106.741 163.379 112.081 163.379 112.081Z" fill="black"/>
<path d="M340.887 332.92C340.867 345.53 336.337 357.644 328.243 366.74C320.148 375.835 309.113 381.211 297.436 381.746C285.759 382.282 274.34 377.936 265.56 369.614C256.779 361.292 251.313 349.636 250.301 337.074C250.235 336.279 250.186 335.484 250.164 334.701V334.659C250.142 334.07 250.131 333.476 250.131 332.879C250.131 319.895 254.912 307.443 263.422 298.262C271.932 289.081 283.474 283.924 295.509 283.924C307.544 283.924 319.086 289.081 327.596 298.262C336.106 307.443 340.887 319.895 340.887 332.879V332.92Z" fill="#65617D"/>
<path d="M295.509 359.594C309.179 359.594 320.26 347.638 320.26 332.891C320.26 318.143 309.179 306.188 295.509 306.188C281.839 306.188 270.757 318.143 270.757 332.891C270.757 347.638 281.839 359.594 295.509 359.594Z" fill="#DCE0ED"/>
<path d="M295.509 348.913C303.711 348.913 310.36 341.739 310.36 332.891C310.36 324.042 303.711 316.869 295.509 316.869C287.307 316.869 280.658 324.042 280.658 332.891C280.658 341.739 287.307 348.913 295.509 348.913Z" fill="#65617D"/>
<path d="M176.338 239.923L67.0669 242.297V224.922C68.046 210.936 81.3679 206.028 93.4689 204.491C102.929 203.333 112.508 204.108 121.702 206.776C144.886 213.398 159.655 214.68 166.932 214.805C168.529 214.83 170.069 215.45 171.292 216.56C172.515 217.669 173.345 219.2 173.642 220.893C173.989 222.881 174.33 225.047 174.649 227.183C174.891 228.856 175.122 230.506 175.331 232.043C175.936 236.47 176.338 239.923 176.338 239.923Z" fill="#65617D"/>
<path d="M263.513 336.054H36.5178C34.7652 336.073 33.0461 335.536 31.5743 334.509C30.1025 333.483 28.9429 332.012 28.2397 330.28C26.5291 325.871 28.9218 323.058 31.474 321.409C36.697 318.069 40.6563 312.843 42.6507 306.657C45.0709 298.943 47.4361 286.873 48.3656 268.015C49.3227 248.51 55.8682 238.867 62.9416 234.191C72.0778 228.162 82.0939 230.423 82.0939 230.423L174.132 231.218C175.77 232.02 177.286 233.086 178.626 234.381C186.827 242.617 174.869 253.37 174.869 253.37C149.199 282.642 168.632 312.312 168.632 312.312H215.726C224.525 312.361 233.129 309.519 240.395 304.164C246.759 299.417 249.196 294.83 250.175 292.053C250.901 289.929 251.638 287.81 252.518 285.757C264.872 256.853 249.971 209.832 243.541 192.249C241.946 187.876 240.874 185.325 240.874 185.325L255.642 184.138L264.993 183.372H265.086C285.669 221.67 293.32 261.024 295.888 290.184C296.13 292.931 296.329 295.596 296.488 298.153C296.779 303.016 296.142 307.891 294.617 312.478C293.091 317.064 290.708 321.263 287.617 324.816C284.526 328.369 280.792 331.2 276.646 333.133C272.5 335.066 268.03 336.06 263.513 336.054Z" fill="#FF3427"/>
<path opacity="0.1" d="M175.337 232.043H67.0669V227.183H174.654C174.896 228.827 175.127 230.476 175.337 232.043Z" fill="black"/>
<path opacity="0.1" d="M178.631 234.416H63.8163C63.5177 234.417 63.222 234.353 62.9473 234.226C72.0834 228.198 82.1 230.458 82.1 230.458L174.137 231.254C175.776 232.055 177.291 233.122 178.631 234.416Z" fill="black"/>
<path d="M179.588 228.34H23.6413C22.3988 228.34 21.3916 229.427 21.3916 230.767V230.773C21.3916 232.113 22.3988 233.2 23.6413 233.2H179.588C180.831 233.2 181.838 232.113 181.838 230.773V230.767C181.838 229.427 180.831 228.34 179.588 228.34Z" fill="#DCE0ED"/>
<path opacity="0.1" d="M340.612 327.527C335.194 328.927 328.511 330.351 320.261 331.68C317.191 332.167 313.891 332.634 310.36 333.081C301.928 334.161 292.176 335.104 280.911 335.828C277.721 336.034 274.408 336.222 270.972 336.392C264.536 336.708 257.648 336.95 250.307 337.116L250.169 334.742V334.701C260.427 330.232 276.571 318.311 279.167 287.258C285.65 284.563 292.62 283.509 299.54 284.177C306.461 284.845 313.146 287.218 319.082 291.113C325.019 295.007 330.047 300.32 333.781 306.641C337.514 312.963 339.853 320.124 340.618 327.574L340.612 327.527Z" fill="black"/>
<path d="M241.611 336.054C241.611 336.054 293.699 329.954 275.757 244.332C275.757 244.332 301.493 269.789 317.505 283.935C333.517 298.082 362.058 317.587 362.058 317.587C362.058 317.587 345.018 334.766 241.611 336.054Z" fill="#FF3427"/>
<path opacity="0.1" d="M241.611 336.054C241.611 336.054 293.699 329.954 275.757 244.332C275.757 244.332 301.493 269.789 317.505 283.935C333.517 298.082 362.058 317.587 362.058 317.587C362.058 317.587 345.018 334.766 241.611 336.054Z" fill="white"/>
<path d="M102.451 381.846C127.513 381.846 147.829 359.928 147.829 332.891C147.829 305.854 127.513 283.935 102.451 283.935C77.389 283.935 57.0728 305.854 57.0728 332.891C57.0728 359.928 77.389 381.846 102.451 381.846Z" fill="#65617D"/>
<path d="M102.451 359.594C116.121 359.594 127.203 347.638 127.203 332.891C127.203 318.143 116.121 306.188 102.451 306.188C88.781 306.188 77.699 318.143 77.699 332.891C77.699 347.638 88.781 359.594 102.451 359.594Z" fill="#DCE0ED"/>
<path d="M102.451 348.913C110.653 348.913 117.302 341.739 117.302 332.891C117.302 324.042 110.653 316.869 102.451 316.869C94.2489 316.869 87.5999 324.042 87.5999 332.891C87.5999 341.739 94.2489 348.913 102.451 348.913Z" fill="#65617D"/>
<path opacity="0.1" d="M153.329 318.186C153.329 286.576 130.057 260.947 101.351 260.947C72.6442 260.947 49.3721 286.576 49.3721 318.186C49.3721 319.524 49.4143 320.847 49.4986 322.156H153.203C153.287 320.847 153.329 319.524 153.329 318.186Z" fill="black"/>
<path d="M151.404 317.201C151.404 286.76 128.996 262.081 101.351 262.081C73.7059 262.081 51.2974 286.76 51.2974 317.201C51.2974 318.489 51.3414 319.759 51.4184 321.023H151.283C151.36 319.759 151.404 318.489 151.404 317.201Z" fill="#444053"/>
<path opacity="0.1" d="M151.344 319.866C151.344 320.263 151.305 320.655 151.283 321.053H51.4184C51.4184 320.655 51.3744 320.263 51.3579 319.866H151.344Z" fill="black"/>
<path opacity="0.1" d="M158.005 322.21H35.2693C32.028 322.21 29.4004 325.043 29.4004 328.538C29.4004 332.033 32.028 334.867 35.2693 334.867H158.005C161.246 334.867 163.874 332.033 163.874 328.538C163.874 325.043 161.246 322.21 158.005 322.21Z" fill="black"/>
<path d="M158.005 321.023H35.2693C32.028 321.023 29.4004 323.856 29.4004 327.351C29.4004 330.847 32.028 333.68 35.2693 333.68H158.005C161.246 333.68 163.874 330.847 163.874 327.351C163.874 323.856 161.246 321.023 158.005 321.023Z" fill="#DCE0ED"/>
<path opacity="0.1" d="M286.936 238.472C290.252 236.854 289.88 228.242 286.106 219.235C282.331 210.229 276.583 204.239 273.267 205.857C269.951 207.474 270.323 216.087 274.097 225.093C277.872 234.099 283.62 240.089 286.936 238.472Z" fill="black"/>
<path d="M287.486 237.876C290.802 236.259 290.43 227.646 286.655 218.64C282.881 209.634 277.133 203.644 273.817 205.261C270.5 206.879 270.872 215.491 274.647 224.498C278.421 233.504 284.17 239.494 287.486 237.876Z" fill="#DCE0ED"/>
<path opacity="0.1" d="M264.987 183.384V192.683H248.211C246.649 192.684 245.089 192.549 243.547 192.279C241.952 187.906 240.879 185.354 240.879 185.354L255.648 184.167L264.987 183.384Z" fill="black"/>
<path d="M264.987 191.472H248.211C233.476 191.472 221.534 179.604 221.534 164.906V162.443C221.534 147.774 233.476 135.883 248.211 135.883L264.987 137.526V191.472Z" fill="#FF3427"/>
<path d="M237.348 151.608C237.348 151.608 247.386 157.393 241.611 167.184C241.611 167.184 234.526 179.717 223.388 178.53L219.334 151.608C219.334 151.608 232.672 150.272 237.348 151.608Z" fill="#FF3427"/>
<path opacity="0.1" d="M233.492 151.085C235.088 151.151 236.649 151.602 238.062 152.405C239.475 153.208 240.702 154.343 241.655 155.726C243.442 158.396 244.509 162.289 241.622 167.184C241.622 167.184 234.537 179.717 223.399 178.53L219.345 151.608C219.345 151.608 227.689 150.747 233.492 151.085Z" fill="black"/>
<path opacity="0.1" d="M264.437 137.526H267.671C270.388 137.526 272.993 138.69 274.913 140.762C276.834 142.835 277.913 145.645 277.913 148.575V180.429C277.913 183.359 276.834 186.17 274.913 188.242C272.993 190.314 270.388 191.478 267.671 191.478H264.437V137.526Z" fill="black"/>
<path d="M264.987 137.526H268.222C270.938 137.526 273.543 138.69 275.464 140.762C277.384 142.835 278.463 145.645 278.463 148.575V180.429C278.463 183.359 277.384 186.17 275.464 188.242C273.543 190.314 270.938 191.478 268.222 191.478H264.987V137.526Z" fill="#DCE0ED"/>
<path d="M145.882 206.811C145.882 206.811 148.473 207.832 151.932 209.256C157.433 211.541 165.188 214.876 167.884 216.703C170.579 218.531 180.628 221.534 188.152 223.646C193.731 225.205 199.474 225.969 205.237 225.919C211.089 225.86 218.179 225.8 220.137 225.8C220.48 225.797 220.822 225.825 221.16 225.883C223.217 226.251 223.135 227.741 223.085 228.097V228.174C210.985 236.084 196.315 271.492 195.402 277.426C194.714 281.876 188.669 294.213 185.688 300.111C184.687 302.087 184.038 303.34 184.038 303.34L187.707 307.885L198.339 313.03L208.421 317.777C208.421 317.777 219.059 318.37 219.241 317.777C219.422 317.184 219.422 311.054 219.422 311.054C218.128 310.152 216.899 309.144 215.748 308.039C213.308 305.747 211.042 303.249 208.971 300.568C203.108 293.05 214.84 278.613 214.84 278.613L237.392 246.967C237.392 246.967 239.224 243.406 248.024 229.165C256.825 214.923 248.024 207.209 248.024 207.209L232.535 200.272C205.671 189.425 173.268 180.732 173.268 180.732L172.806 180.666L165.936 179.741L145.882 206.811Z" fill="#EFB7B9"/>
<path d="M215.093 313.03C215.093 313.03 217.019 315.48 215.577 315.7C214.136 315.92 210.352 315.035 210.352 315.035L186.354 301.387C186.354 301.387 183.741 299.382 183.125 303.316C182.509 307.25 182.091 306.876 182.091 306.876C182.091 306.876 178.928 314.217 182.091 315.736C185.254 317.255 204.252 323.266 204.252 323.266C204.252 323.266 231.826 330.019 234.438 322.227C237.051 314.436 229.763 315.777 229.763 315.777C229.763 315.777 220.687 313.404 217.591 308.656C217.569 308.656 213.102 309.992 215.093 313.03Z" fill="#444053"/>
<path opacity="0.05" d="M248.002 207.209L232.513 200.272C205.649 189.425 173.246 180.732 173.246 180.732L172.784 180.666L165.914 179.741L145.882 206.811C145.882 206.811 148.473 207.832 151.932 209.256C157.433 211.541 165.188 214.876 167.884 216.703C170.579 218.531 180.628 221.534 188.152 223.646C193.731 225.205 199.474 225.969 205.237 225.919C211.089 225.86 218.179 225.8 220.137 225.8C220.48 225.797 220.822 225.825 221.16 225.883C223.217 226.251 223.135 227.741 223.085 228.097V228.174C210.985 236.084 196.315 271.492 195.402 277.426C194.714 281.876 188.669 294.213 185.688 300.111L185.287 300.907C184.489 300.764 183.494 301.073 183.142 303.316C182.52 307.244 182.107 306.876 182.107 306.876C182.107 306.876 178.945 314.217 182.107 315.736C185.27 317.255 204.252 323.266 204.252 323.266C204.252 323.266 231.825 330.019 234.438 322.227C237.051 314.436 229.763 315.777 229.763 315.777C229.763 315.777 220.687 313.404 217.59 308.656C217.316 308.743 217.048 308.85 216.787 308.977C216.463 308.692 216.116 308.383 215.748 308.039C213.308 305.747 211.042 303.249 208.971 300.568C203.108 293.05 214.84 278.613 214.84 278.613L237.392 246.967C237.392 246.967 239.224 243.406 248.024 229.165C256.825 214.923 248.002 207.209 248.002 207.209Z" fill="black"/>
<path d="M127.412 74.4717L128.248 75.6111L128.715 76.246L131.631 80.204C131.631 80.204 138.589 82.6132 144.688 84.1738C151.041 85.7938 156.459 86.5 152.152 82.625C149.479 80.2218 149.303 76.1985 150.277 71.8845C151.097 68.5648 152.271 65.3588 153.775 62.3308C153.991 61.8798 154.206 61.4407 154.419 61.0135C155.785 58.2873 157.298 55.6501 158.951 53.1153C155.04 50.1937 150.984 47.5055 146.801 45.0629C141.762 42.2502 137.626 41.0219 140.25 46.5879C141.933 50.1483 141.383 54.1478 139.81 57.9753C139.689 58.2779 139.557 58.5687 139.419 58.8832C138.007 61.8491 136.263 64.6172 134.227 67.1255C132.14 69.7664 129.861 72.223 127.412 74.4717Z" fill="#EFB7B9"/>
<path d="M162.251 164.864L165.98 168.537L169.583 183.491H163.571L156.932 174.175L162.251 164.864Z" fill="#444053"/>
<path opacity="0.1" d="M156.932 174.175L160.947 179.806L163.571 183.491H169.583L168.967 180.933L166.343 170.039L165.98 168.537L162.251 164.864L157.158 173.777L156.932 174.175Z" fill="black"/>
<path opacity="0.1" d="M156.932 174.175L160.947 179.806L163.571 183.491H169.583L168.967 180.933L166.343 170.039L165.98 168.537L162.251 164.864L157.158 173.777L156.932 174.175Z" fill="black"/>
<path d="M136.949 213.523C136.949 213.523 139.54 214.543 143 215.968C148.5 218.252 156.256 221.587 158.951 223.415C161.646 225.242 171.695 228.245 179.22 230.357C184.798 231.918 190.541 232.684 196.304 232.636C202.156 232.577 209.246 232.517 211.204 232.517C211.547 232.514 211.889 232.542 212.228 232.601C214.285 232.968 214.202 234.458 214.153 234.814V234.891C202.052 242.801 187.382 278.209 186.469 284.143C185.782 288.594 179.737 300.93 176.756 306.829C175.755 308.805 175.105 310.057 175.105 310.057L178.774 314.602L189.401 319.741L199.483 324.488C199.483 324.488 210.121 325.082 210.302 324.488C210.484 323.895 210.484 317.765 210.484 317.765C209.189 316.863 207.961 315.856 206.81 314.751C204.37 312.459 202.104 309.961 200.033 307.28C194.17 299.761 205.902 285.324 205.902 285.324L228.454 253.678C228.454 253.678 230.285 250.118 239.086 235.876C247.887 221.635 239.086 213.92 239.086 213.92L224.972 205.215C202.97 190.778 171.981 182.47 171.981 182.47L171.519 182.405L164.649 181.479L136.949 213.523Z" fill="#EFB7B9"/>
<path opacity="0.1" d="M175.1 310.051L178.769 314.596L189.401 319.741L199.483 324.488C199.483 324.488 210.121 325.082 210.302 324.488C210.484 323.895 210.484 317.765 210.484 317.765C209.189 316.863 207.961 315.856 206.81 314.751C205.671 315.409 204.379 316.644 205.627 318.554C205.627 318.554 207.552 320.999 206.111 321.225C204.67 321.45 200.886 320.56 200.886 320.56L176.888 306.912L176.75 306.811C175.738 308.799 175.1 310.051 175.1 310.051Z" fill="black"/>
<path d="M206.161 319.741C206.161 319.741 208.086 322.186 206.639 322.411C205.193 322.637 201.414 321.741 201.414 321.741L177.421 308.093C177.421 308.093 174.808 306.093 174.187 310.021C173.565 313.95 173.158 313.582 173.158 313.582C173.158 313.582 169.996 320.928 173.158 322.447C176.321 323.966 195.297 329.954 195.297 329.954C195.297 329.954 222.865 336.7 225.478 328.915C228.091 321.13 220.803 322.459 220.803 322.459C220.803 322.459 211.727 320.085 208.636 315.338C208.652 315.362 204.164 316.697 206.161 319.741Z" fill="#444053"/>
<path opacity="0.1" d="M138.412 56.468C141.592 58.8416 146.443 62.5979 150.585 62.5979C151.653 62.5976 152.72 62.5063 153.775 62.3249C155.307 59.1314 157.036 56.0526 158.951 53.1094C158.951 53.1094 134.749 34.9099 140.25 46.582C142.065 50.4628 140.277 52.3677 138.412 56.468Z" fill="black"/>
<path d="M130.783 40.0486C130.781 43.6113 131.605 47.118 133.182 50.2484C134.759 53.3788 137.037 56.0332 139.81 57.9692C140.432 58.4071 141.078 58.8035 141.746 59.156C145.6 61.2303 149.976 61.8922 154.211 61.0414C158.445 60.1905 162.307 57.8734 165.21 54.4412C168.114 51.009 169.901 46.649 170.301 42.0223C170.7 37.3955 169.691 32.7544 167.425 28.8025C165.159 24.8506 161.761 21.8036 157.745 20.1234C153.729 18.4431 149.315 18.2213 145.172 19.4917C141.029 20.762 137.382 23.4551 134.786 27.1626C132.189 30.8702 130.784 35.39 130.783 40.0368V40.0486Z" fill="#EFB7B9"/>
<path opacity="0.1" d="M136.949 213.523C136.949 213.523 139.54 214.543 143 215.968C145.172 213.903 147.4 211.909 148.33 211.547C150.348 210.752 156.949 206.598 156.767 205.411C156.586 204.224 159.517 199.679 162.081 198.884C164.644 198.088 163.181 193.941 163.181 193.941C163.181 193.941 168.131 191.965 169.363 189.193C170.595 186.422 174.368 182.862 173.081 183.064C172.523 182.966 171.991 182.741 171.519 182.405L164.649 181.479L136.949 213.523Z" fill="black"/>
<path d="M121.911 206.402C121.911 206.402 130.349 213.92 130.739 217.279C131.13 220.638 136.762 220.448 136.762 220.448C136.762 220.448 145.2 211.743 147.213 210.953C149.226 210.164 155.832 206.004 155.651 204.818C155.469 203.631 158.401 199.085 160.964 198.29C163.527 197.495 162.064 193.347 162.064 193.347C162.064 193.347 167.014 191.371 168.246 188.6C169.478 185.829 173.252 182.269 171.965 182.47C171.602 182.524 170.441 181.877 168.967 180.933C167.157 179.747 164.864 178.138 162.994 176.78C161.013 175.332 159.501 174.18 159.501 174.18C159.501 174.18 158.637 174.014 157.158 173.783C149.177 172.537 123.182 169.356 117.148 179.717C116.344 181.086 115.741 182.581 115.36 184.15C112.66 195.187 121.911 206.402 121.911 206.402Z" fill="#444053"/>
<path opacity="0.1" d="M130.734 182.417C130.734 182.417 122.12 187.663 118.908 187.663C115.696 187.663 130.734 182.417 130.734 182.417Z" fill="black"/>
<path opacity="0.1" d="M136.487 186.422C136.487 186.422 123.66 191.075 123.66 194.73C123.66 198.385 122.461 184.939 136.487 186.422Z" fill="black"/>
<path opacity="0.1" d="M167.196 165.469L167.014 165.736C167.097 165.668 167.16 165.575 167.196 165.469Z" fill="black"/>
<path opacity="0.1" d="M127.412 74.4717L128.248 75.6111L128.715 76.246L131.631 80.204C131.631 80.204 138.589 82.6132 144.688 84.1738C151.041 85.7938 156.459 86.5 152.152 82.625C149.479 80.2218 149.303 76.1985 150.277 71.8845L150.084 71.6175C150.084 71.6175 150.277 75.617 148.082 75.6941C145.123 75.795 145.084 74.721 142.356 73.4808C138.842 71.8786 135.239 69.2024 134.227 67.1196C132.141 69.7625 129.862 72.2211 127.412 74.4717Z" fill="black"/>
<path opacity="0.1" d="M115.36 184.132C116.861 184.824 118.551 184.866 120.08 184.251C125.762 182.269 134.749 177.498 138.962 179.586C142.34 181.26 155.942 181.212 160.964 179.806C162.213 179.456 162.928 179.023 162.818 178.512C162.747 177.925 162.813 177.327 163.01 176.774C163.593 174.762 165.177 171.967 166.36 170.039L165.997 168.537L162.268 164.864L157.174 173.765C149.193 172.519 123.198 169.338 117.164 179.699C116.354 181.067 115.746 182.563 115.36 184.132Z" fill="black"/>
<path d="M111.648 179.503C111.648 179.503 113.848 185.04 119.53 183.064C125.211 181.088 134.199 176.311 138.412 178.4C142.626 180.488 162.801 179.895 162.251 177.325C161.701 174.756 167.201 166.644 167.201 166.644C167.201 166.644 164.198 166.051 162.339 155.471C162.064 153.928 161.817 152.171 161.608 150.178C161.153 146.094 161.046 141.975 161.289 137.87C162.031 126.418 165.749 121.742 165.749 121.742C165.749 121.742 170.881 115.416 166.481 106.711C164.176 102.148 154.875 89.5029 154.749 83.8651C154.633 78.7501 150.101 72.8042 150.101 72.8042C150.101 72.8042 150.293 76.8037 148.099 76.8808C145.139 76.9817 145.101 75.9077 142.373 74.6675C138.363 72.8398 134.243 69.6176 133.974 67.4636C133.974 67.4636 117.164 66.5557 113.496 84.9511C109.827 103.347 111.114 113.434 111.664 115.612C112.214 117.79 116.977 145.875 113.127 157.743C109.277 169.611 111.648 179.503 111.648 179.503Z" fill="#A36468"/>
<path opacity="0.1" d="M139.056 147.187C142.088 152.705 146.144 157.486 150.97 161.233C154.188 161.261 157.402 161.493 160.596 161.927C160.321 160.384 160.046 158.628 159.864 156.634C159.41 152.55 159.303 148.431 159.545 144.327C159.017 144.041 158.551 143.637 158.18 143.142C157.808 142.646 157.538 142.071 157.389 141.455C156.47 138.09 148.291 122.068 148.291 122.068C148.291 122.068 129.155 116.728 128.49 122.068C127.824 127.409 134.287 138.286 139.056 147.187Z" fill="black"/>
<path d="M145.398 112.081C145.398 112.081 156.949 135.657 157.845 139.022C158.079 139.956 158.582 140.785 159.283 141.389C159.983 141.993 160.844 142.34 161.74 142.38C161.74 142.38 173.246 145.347 175.997 145.745C178.747 146.142 202.602 148.314 202.602 148.314C202.602 148.314 208.652 148.516 209.384 146.142C210.055 143.971 221.743 132.56 228.509 142.517C229.132 143.438 229.546 144.505 229.716 145.63C229.886 146.756 229.808 147.91 229.488 148.997C228.245 153.269 225.693 160.052 222.953 155.833C219.103 149.899 214.626 151.566 214.626 154.729C214.626 157.892 208.465 156.717 206.452 157.162C205.352 157.405 201.568 158.491 198.295 159.44C194.487 160.55 190.587 161.248 186.651 161.523C180.155 161.98 170.579 162.36 167.185 160.977C163.093 159.298 155.948 158.912 152.884 158.823C151.871 158.797 150.893 158.418 150.095 157.743C145.852 154.158 142.264 149.754 139.513 144.754C134.744 135.853 124.936 117.422 125.597 112.081C126.257 106.741 145.398 112.081 145.398 112.081Z" fill="#EFB7B9"/>
<path opacity="0.1" d="M141.548 79.4148C141.548 79.4148 147.736 90.494 150.601 98.404C153.467 106.314 156.949 120.163 156.949 120.163L139.71 117.986L138.247 115.416C138.247 115.416 125.938 123.724 127.406 127.284C128.875 130.845 124.106 121.944 124.474 111.856C124.843 101.768 123.149 83.7644 124.474 79.4148C125.8 75.0652 137.494 76.0502 141.548 79.4148Z" fill="black"/>
<path d="M124.497 110.669C124.128 120.757 128.897 129.658 127.428 126.097C125.96 122.537 138.269 114.229 138.269 114.229L139.716 116.799L156.949 118.977C156.949 118.977 153.467 105.127 150.601 97.217C148.88 92.742 146.911 88.382 144.705 84.162C142.939 80.7025 141.548 78.228 141.548 78.228C139.177 76.252 134.144 75.0948 130.129 75.3678C129.503 75.4062 128.88 75.4874 128.264 75.6111C126.614 75.9612 125.283 76.6377 124.695 77.7058C124.605 77.8712 124.531 78.0462 124.475 78.228C123.154 82.5776 124.849 100.581 124.497 110.669Z" fill="#A36468"/>
<path opacity="0.1" d="M116.796 138.286C116.796 138.286 124.084 149.115 126.284 149.412C126.268 149.436 116.917 147.187 116.796 138.286Z" fill="black"/>
<path opacity="0.1" d="M116.796 153.714C116.796 153.714 130.547 168.697 134.947 168.846C139.347 168.994 116.796 153.714 116.796 153.714Z" fill="black"/>
<path opacity="0.1" d="M116.796 159.969C116.796 159.969 125.597 171.095 126.147 171.095C126.697 171.095 116.642 167.238 116.796 159.969Z" fill="black"/>
<path opacity="0.1" d="M124.678 77.7058C126.093 77.4783 127.459 76.9842 128.715 76.246C129.188 75.979 129.656 75.6823 130.112 75.3678C131.916 74.0656 133.596 72.5749 135.129 70.9173C137.659 68.2648 140.184 65.369 141.229 61.7315C141.464 60.8931 141.636 60.0359 141.746 59.168C142.373 54.6048 141.845 49.5668 144.87 46.4634C145.438 45.8845 146.09 45.4095 146.801 45.057C151.091 42.8555 157.312 44.2797 160.513 40.3098C162.548 37.7938 162.499 34.2987 164.061 31.5631C164.743 30.3763 165.997 29.3497 167.108 28.2579C165.49 25.6004 163.342 23.3661 160.822 21.718C158.301 20.07 155.472 19.0496 152.539 18.7314C149.607 18.4132 146.646 18.8053 143.872 19.8789C141.098 20.9525 138.581 22.6807 136.504 24.9373C134.428 27.1939 132.845 29.9221 131.87 32.9227C130.896 35.9234 130.555 39.121 130.871 42.2821C131.188 45.4432 132.155 48.4882 133.701 51.195C135.247 53.9017 137.334 56.2019 139.81 57.9278C139.689 58.2304 139.557 58.5212 139.419 58.8357C135.64 67.1433 127.412 74.4302 127.412 74.4302L128.248 75.5695C126.581 75.979 125.267 76.6377 124.678 77.7058Z" fill="black"/>
<path d="M159.413 39.7283C155.689 44.333 147.862 41.6509 143.764 45.8699C140.167 49.5668 141.597 56.017 140.129 61.1381C139.083 64.7756 136.559 67.6655 134.029 70.3239C130.343 74.1929 125.63 78.1211 120.591 77.0115C117.604 76.3528 114.678 73.9436 111.791 75.0533C110.355 75.6111 109.326 76.9522 108.254 78.133C104.61 82.1385 99.875 84.7814 94.739 85.6751C93.724 85.9222 92.665 85.8689 91.676 85.5208C90.136 84.8443 89.305 83.0286 87.902 82.0613C85.152 80.1624 81.621 82.1088 78.766 83.8059C70.7826 88.469 61.9699 91.245 52.9145 91.948C43.8591 92.651 34.7688 91.265 26.2486 87.883L30.6984 85.509C29.7523 83.4261 27.1946 82.9692 25.5665 81.4442C22.2113 78.3051 24.1859 72.0269 27.7337 69.149C31.2814 66.271 35.8742 65.2681 39.5485 62.5801C40.2965 62.0341 41.0556 61.3102 41.1271 60.3429C41.115 59.6325 40.9062 58.9423 40.5276 58.361C38.5694 54.6404 36.4023 50.6468 36.8423 46.3921C37.5134 39.8648 44.1193 35.8534 50.1862 35.3965C56.2532 34.9395 62.2596 36.9096 68.3375 37.0224C70.5377 37.0639 72.8423 36.8325 74.7289 35.6041C77.364 33.8952 78.689 30.6374 80.29 27.8069C83.147 22.7812 87.241 18.7097 92.116 16.0457C97.616 13.0491 103.842 11.9988 109.563 9.51828C115.404 6.99048 120.718 2.99098 126.829 1.38288C135.701 -0.99072 145.205 2.11268 152.867 7.47708C156.558 10.0583 168.345 18.3422 168.268 23.6412C168.208 26.7862 164.418 28.4893 162.983 30.9578C161.398 33.7171 161.448 37.2123 159.413 39.7283Z" fill="#965D7B"/>
<g opacity="0.1">
<path opacity="0.1" d="M39.9884 55.3881C40.3644 55.9709 40.5729 56.6603 40.588 57.3701C40.5661 57.6203 40.5008 57.8639 40.3955 58.0881C38.7783 55.0143 37.0952 51.7565 36.8257 48.3267C37.5408 50.7774 38.8003 53.1332 39.9884 55.3881Z" fill="black"/>
<path opacity="0.1" d="M25.0275 78.4713C26.6501 79.9963 29.2078 80.4532 30.1594 82.536L28.5863 83.3787C27.5263 82.8409 26.5185 82.1909 25.5776 81.4383C24.981 80.8648 24.5157 80.1501 24.218 79.3502C23.9202 78.5503 23.7982 77.6868 23.8615 76.8275C24.1419 77.4557 24.5387 78.0152 25.0275 78.4713Z" fill="black"/>
<path opacity="0.1" d="M78.227 80.8389C81.082 79.1418 84.619 77.1954 87.363 79.0943C88.76 80.0616 89.596 81.8773 91.137 82.5538C92.124 82.902 93.181 82.9553 94.195 82.7081C99.332 81.8144 104.069 79.1716 107.715 75.166C108.782 73.9792 109.81 72.6441 111.251 72.0863C114.123 70.9766 117.049 73.3858 120.052 74.0445C125.09 75.1541 129.799 71.2259 133.489 67.3569C136.02 64.7044 138.539 61.8086 139.584 58.1711C141.058 53.05 139.628 46.5998 143.225 42.9029C147.334 38.6839 155.145 41.366 158.874 36.7613C160.903 34.2453 160.859 30.7501 162.422 28.0146C163.742 25.7062 167.163 24.0685 167.647 21.2854C168.025 22.0119 168.234 22.8263 168.257 23.659C168.197 26.804 164.407 28.5071 162.972 30.9756C161.409 33.7112 161.453 37.2063 159.424 39.7223C155.695 44.3271 147.873 41.6449 143.775 45.864C140.178 49.5609 141.608 56.0111 140.134 61.1322C139.089 64.7697 136.57 67.6595 134.04 70.3179C130.349 74.1869 125.64 78.1152 120.602 77.0056C117.61 76.3469 114.684 73.9377 111.801 75.0473C110.36 75.6051 109.332 76.9462 108.265 78.1271C104.619 82.1327 99.882 84.7755 94.745 85.6692C93.731 85.9164 92.674 85.8631 91.687 85.5149C90.146 84.8384 89.31 83.0226 87.913 82.0554C85.163 80.1565 81.632 82.1028 78.777 83.8C70.7936 88.463 61.9808 91.239 52.9254 91.942C43.8701 92.645 34.7798 91.259 26.2595 87.877L29.3342 86.233C37.4117 88.851 45.889 89.722 54.2793 88.796C62.6697 87.871 70.808 85.1665 78.227 80.8389Z" fill="black"/>
</g>
<path opacity="0.1" d="M214.153 234.808L218.778 232.393V231.449C218.778 231.087 215.088 231.889 212.228 232.571C214.285 232.963 214.202 234.452 214.153 234.808Z" fill="black"/>
<path d="M218.174 180.239C224.328 180.239 229.317 173.69 229.317 165.612C229.317 157.533 224.328 150.985 218.174 150.985C212.019 150.985 207.03 157.533 207.03 165.612C207.03 173.69 212.019 180.239 218.174 180.239Z" fill="#FF3427"/>
<path d="M110.916 146.576L93.0008 165.636L34.1084 164.526L50.3016 146.576H110.916Z" fill="#DDA2A6"/>
<path d="M110.916 211.778V146.576L93.001 165.636V229.438L110.916 211.778Z" fill="#B77B7F"/>
<path d="M34.1084 164.526V229.438H93.0008V165.636L34.1084 164.526Z" fill="#DDA2A6"/>
<path opacity="0.3" d="M34.1084 164.526V229.438H93.0008V165.636L34.1084 164.526Z" fill="white"/>
<path d="M88.2158 183.503L44.4162 175.391L38.7068 206.414L83.7988 215.35L88.2158 183.503Z" fill="#DCE0ED"/>
<path d="M79.564 190.748L50.1204 185.758L49.3833 189.9L78.827 195.288L79.564 190.748Z" fill="#FF3427"/>
<path d="M71.4671 199.608L54.7184 196.985L53.9814 201.584L71.4671 204.23V199.608Z" fill="#FF3427"/>
<path d="M103.672 180.797L102.874 155.126L98.271 160.028L99.074 185.758L103.672 180.797Z" fill="#65617D"/>
<path d="M44.3778 153.144L100.971 153.969L102.874 155.126L98.2709 160.028L96.6809 159.019L40.6265 157.304L44.3778 153.144Z" fill="#65617D"/>
</svg>
